<?xml version="1.0" encoding="UTF-8"?>
<svg width="40px" height="62px" viewBox="0 0 40 62" version="1.1" xmlns="http://www.w3.org/2000/svg" xmlns:xlink="http://www.w3.org/1999/xlink">
    <!-- Generator: Sketch 41 (35326) - http://www.bohemiancoding.com/sketch -->
    <title>Group 2 Copy</title>
    <desc>Created with Sketch.</desc>
    <defs></defs>
    <g id="Page-1" stroke="none" stroke-width="1" fill="none" fill-rule="evenodd">
        <g id="Overwiev--I---Pages-als-Best-Practice" transform="translate(-18.000000, -3570.000000)">
            <g id="Group-2-Copy" transform="translate(38.000000, 3601.000000) rotate(-26.000000) translate(-38.000000, -3601.000000) translate(12.000000, 3575.000000)">
                <path d="M25.718382,44.4010167 C23.5162918,48.9010393 18.8925015,52 13.5449102,52 C6.06426285,52 -6.82121026e-13,45.9357371 -6.82121026e-13,38.4550898 C-6.82121026e-13,33.1074985 3.09896075,28.4837082 7.59898328,26.281618 C6.72060991,28.0765944 6.22754491,30.0944889 6.22754491,32.2275449 C6.22754491,39.7081922 12.2918078,45.7724551 19.7724551,45.7724551 C21.9055111,45.7724551 23.9234056,45.2793901 25.718382,44.4010167 Z" id="Combined-Shape-Copy-2" fill-opacity="0.25" fill="#FFFC00"></path>
                <path d="M32.8075779,35.9213504 C31.1996889,41.6066639 25.9725583,45.7724551 19.7724551,45.7724551 C12.2918078,45.7724551 6.22754491,39.7081922 6.22754491,32.2275449 C6.22754491,26.0274417 10.3933361,20.8003111 16.0786496,19.1924221 C15.7465628,20.3666436 15.5688623,21.6056835 15.5688623,22.8862275 C15.5688623,30.3668749 21.6331251,36.4311377 29.1137725,36.4311377 C30.3943165,36.4311377 31.6333564,36.2534372 32.8075779,35.9213504 Z" id="Combined-Shape-Copy" fill-opacity="0.4" fill="#FFF100"></path>
                <circle id="Oval-4-Copy-2" fill-opacity="0.5" fill="#FFDA00" cx="29.1137725" cy="22.8862275" r="13.5449102"></circle>
                <circle id="Oval-4-Copy" fill="#FFCA00" cx="38.4550898" cy="13.5449102" r="13.5449102"></circle>
            </g>
        </g>
    </g>
</svg>